<svg width="162" height="152" viewBox="0 0 162 152" fill="none" xmlns="http://www.w3.org/2000/svg">
<mask id="mask0_18_231" style="mask-type:alpha" maskUnits="userSpaceOnUse" x="0" y="0" width="162" height="152">
<rect width="162" height="152" rx="20" fill="#090B23"/>
</mask>
<g mask="url(#mask0_18_231)">
<path d="M175.691 74.9267C175.691 43.8876 150.539 18.7353 119.5 18.7353C88.4609 18.7353 63.3086 43.8876 63.3086 74.9267V87.2353C63.3086 118.274 88.4609 143.427 119.5 143.427C150.539 143.427 175.691 118.274 175.691 87.2353V74.9267ZM119.5 21.9462C148.72 21.9462 172.48 45.6001 172.48 74.9267C172.48 104.253 148.72 127.907 119.5 127.907C90.2805 127.907 66.5195 104.146 66.5195 74.9267C66.6266 45.7072 90.2805 22.0533 119.5 21.9462ZM154.285 127.051C149.79 130.904 144.759 134.008 139.301 136.256V127.479C144.652 125.445 149.79 122.556 154.285 119.024V127.051ZM84.7148 118.917C89.2102 122.556 94.3477 125.338 99.6992 127.372V136.149C94.2406 133.901 89.2102 130.797 84.7148 126.944V118.917ZM102.91 128.549C107.727 130.048 112.864 130.904 117.895 131.011V140.002C112.757 139.895 107.727 138.931 102.91 137.433V128.549ZM121.105 131.011C126.136 130.904 131.273 130.048 136.09 128.549V137.433C131.273 139.038 126.243 139.895 121.105 140.002V131.011ZM67.1617 95.2626C70.2656 103.183 75.1891 110.354 81.5039 116.134V123.947C73.9047 116.134 68.8742 106.073 67.1617 95.2626ZM157.496 123.947V116.134C163.811 110.354 168.734 103.183 171.838 95.2626C170.126 106.073 165.095 116.134 157.496 123.947Z" fill="url(#paint0_linear_18_231)"/>
<path d="M119.5 122.448C145.83 122.448 167.129 101.149 167.022 74.8196C166.915 48.4899 145.723 27.2978 119.5 27.2978C93.2772 27.2978 71.978 48.5969 71.978 74.9266C71.978 101.149 93.2772 122.448 119.5 122.448ZM119.5 30.5087C144.01 30.5087 163.918 50.4165 163.811 74.9266C163.704 99.4367 144.01 119.237 119.5 119.237C94.9897 119.237 75.189 99.3297 75.189 74.8196C75.0819 50.4165 94.9897 30.5087 119.5 30.5087Z" fill="url(#paint1_linear_18_231)"/>
<path d="M96.4881 72.465L118.751 85.3087C119.286 85.6298 119.821 85.6298 120.356 85.3087L142.618 72.465C143.368 72.0368 143.689 71.0736 143.261 70.3243C143.261 70.3243 143.261 70.2173 143.154 70.2173L120.998 37.0376C120.463 36.2884 119.5 36.0744 118.751 36.6095C118.536 36.7165 118.429 36.9306 118.322 37.0376L95.9529 70.2173C95.4177 70.9665 95.6318 71.9298 96.4881 72.465ZM121.105 81.1345V43.1384L139.408 70.5384L121.105 81.1345ZM117.894 43.1384V81.1345L99.592 70.5384L117.894 43.1384Z" fill="url(#paint2_linear_18_231)"/>
<path d="M140.906 78.8868L119.5 92.2657L98.0938 78.8868C97.3446 78.4587 96.3813 78.6727 95.9532 79.4219C95.6321 79.9571 95.6321 80.5993 95.9532 81.1344L118.109 112.816C118.644 113.565 119.607 113.672 120.356 113.137C120.463 113.03 120.57 112.923 120.677 112.816L143.047 81.2415C143.582 80.4923 143.368 79.529 142.619 78.9938C142.191 78.5657 141.441 78.5657 140.906 78.8868ZM117.895 95.0485V106.822L103.124 85.8438L117.895 95.0485ZM121.106 106.822V95.0485L135.876 85.8438L121.106 106.822Z" fill="url(#paint3_linear_18_231)"/>
</g>
<defs>
<linearGradient id="paint0_linear_18_231" x1="119.5" y1="18.7353" x2="119.5" y2="143.427" gradientUnits="userSpaceOnUse">
<stop stop-color="#DA0F5B"/>
<stop offset="1" stop-color="#213C88"/>
</linearGradient>
<linearGradient id="paint1_linear_18_231" x1="119.5" y1="27.2978" x2="119.5" y2="122.448" gradientUnits="userSpaceOnUse">
<stop stop-color="#DA0F5B"/>
<stop offset="1" stop-color="#213C88"/>
</linearGradient>
<linearGradient id="paint2_linear_18_231" x1="119.557" y1="36.3122" x2="119.557" y2="85.5495" gradientUnits="userSpaceOnUse">
<stop stop-color="#DA0F5B"/>
<stop offset="1" stop-color="#213C88"/>
</linearGradient>
<linearGradient id="paint3_linear_18_231" x1="119.528" y1="78.6579" x2="119.528" y2="113.471" gradientUnits="userSpaceOnUse">
<stop stop-color="#DA0F5B"/>
<stop offset="1" stop-color="#213C88"/>
</linearGradient>
</defs>
</svg>
